{"title":"The Legend of Korra S02E03 Civil Wars Pt. 1 (1920x1080) [Phr0stY","uid":8946520,"size":1003713795,"categoryP":"video","categoryS":"hd___tv_shows","magnet":"?xt=urn:btih:dee9961f9fd74fd3b0da0e4c8e8f00f4ccf54fa0&amp;dn=The+Legend+of+Korra+S02E03+Civil+Wars+Pt.+1+%281920x1080%29+%5BPhr0stY&amp;tr=udp%3A%2F%2Ftracker.openbittorrent.com%3A80&amp;tr=udp%3A%2F%2Fopen.demonii.com%3A1337&amp;tr=udp%3A%2F%2Ftracker.coppersurfer.tk%3A6969&amp;tr=udp%3A%2F%2Fexodus.desync.com%3A6969","seeders":4,"leechers":0,"uploader":"frostyon420","files":-1,"time":1379790952,"description":"Please Seed!!!!!\n\n   &lt;a href=&quot;\nhttps://forum.suprbay.org/showthread.php?tid=154520&quot; rel=&quot;nofollow&quot; target=&quot;_NEW&quot;&gt;\nhttps://forum.suprbay.org/showthread.php?tid=154520&lt;/a&gt;\n\n\n\n\n\n\nComplete name                            : D:TV showsAnimeThe Legend Of KorraBook 21080pThe Legend of Korra S02E03 Civil Wars Pt. 1 (1920x1080) [Phr0stY].mkv\nFormat                                   : Matroska\nFormat version                           : Version 4 / Version 2\nFile size                                : 957 MiB\nDuration                                 : 23mn 44s\nOverall bit rate                         : 5 635 Kbps\nMovie name                               : The Legend of Korra S02E03 Civil Wars Pt. 1 (1920x1080) [Phr0stY]\nEncoded date                             : UTC 2013-09-21 16:59:26\nWriting application                      : mkvmerge v6.4.1 ('Omega Point') built on Sep 16 2013 22:05:10\nWriting library                          : libebml v1.3.0 + libmatroska v1.4.1\n\nVideo\nID                                       : 1\nFormat                                   : AVC\nFormat/Info                              : Advanced Video Codec\nFormat profile                           : &lt;a class=&quot;__cf_email__&quot; href=&quot;/cdn-cgi/l/email-protection&quot; data-cfemail=&quot;1159787679515d253f21&quot;&gt;[email&amp;#160;protected]&lt;/a&gt;&lt;script cf-hash='f9e31' type=&quot;text/javascript&quot;&gt;\n/* &lt;![CDATA[ */!function(){try{var t=&quot;currentScript&quot;in document?document.currentScript:function(){for(var t=document.getElementsByTagName(&quot;script&quot;),e=t.length;e--;)if(t[e].getAttribute(&quot;cf-hash&quot;))return t[e]}();if(t&amp;&amp;t.previousSibling){var e,r,n,i,c=t.previousSibling,a=c.getAttribute(&quot;data-cfemail&quot;);if(a){for(e=&quot;&quot;,r=parseInt(a.substr(0,2),16),n=2;a.length-n;n+=2)i=parseInt(a.substr(n,2),16)^r,e+=String.fromCharCode(i);e=document.createTextNode(e),c.parentNode.replaceChild(e,c)}}}catch(u){}}();/* ]]&gt; */&lt;/script&gt;\nFormat settings, CABAC                   : Yes\nFormat settings, ReFrames                : 4 frames\nCodec ID                                 : V_MPEG4/ISO/AVC\nDuration                                 : 23mn 44s\nBit rate                                 : 5 139 Kbps\nWidth                                    : 1 912 pixels\nHeight                                   : 1 072 pixels\nDisplay aspect ratio                     : 16:9\nFrame rate mode                          : Constant\nFrame rate                               : 23.976 fps\nColor space                              : YUV\nChroma subsampling                       : 4:2:0\nBit depth                                : 8 bits\nScan type                                : Progressive\nBits/(Pixel*Frame)                       : 0.105\nStream size                              : 873 MiB (91%)\nLanguage                                 : English\nDefault                                  : Yes\nForced                                   : No\nColor primaries                          : BT.709\nTransfer characteristics                 : BT.709\nMatrix coefficients                      : BT.709\n\nAudio\nID                                       : 2\nFormat                                   : AC-3\nFormat/Info                              : Audio Coding 3\nMode extension                           : CM (complete main)\nFormat settings, Endianness              : Big\nCodec ID                                 : A_AC3\nDuration                                 : 23mn 44s\nBit rate mode                            : Constant\nBit rate                                 : 384 Kbps\nChannel count                            : 6 channels\nChannel positions                        : Front: L C R, Side: L R, LFE\nSampling rate                            : 48.0 KHz\nBit depth                                : 16 bits\nCompression mode                         : Lossy\nStream size                              : 65.2 MiB (7%)\nLanguage                                 : English\nDefault                                  : Yes\nForced                                   : No\n\n","torrent":{"xt":"urn:btih:dee9961f9fd74fd3b0da0e4c8e8f00f4ccf54fa0","amp;dn":"The+Legend+of+Korra+S02E03+Civil+Wars+Pt.+1+%281920x1080%29+%5BPhr0stY","amp;tr":["udp%3A%2F%2Ftracker.openbittorrent.com%3A80","udp%3A%2F%2Fopen.demonii.com%3A1337","udp%3A%2F%2Ftracker.coppersurfer.tk%3A6969","udp%3A%2F%2Fexodus.desync.com%3A6969"],"infoHash":"dee9961f9fd74fd3b0da0e4c8e8f00f4ccf54fa0","infoHashBuffer":{"type":"Buffer","data":[222,233,150,31,159,215,79,211,176,218,14,76,142,143,0,244,204,245,79,160]},"announce":[],"urlList":[]}}